<svg xmlns="http://www.w3.org/2000/svg" viewBox="0 0 195 165"><defs><style>.cls-2,.cls-3{fill:#020202;stroke:#000;stroke-miterlimit:10}.cls-3{fill:#fff}</style></defs><g id="Camada_2" data-name="Camada 2"><g id="Camada_1-2" data-name="Camada 1"><path style="fill:none" d="M0 0h195v165H0z"/><path class="cls-2" d="M50.56 160.78 25.82 14.88q23.46-4.23 47.77-8Q82.9 5.43 92.14 4.1a69.61 69.61 0 0 1 11.59-.26c4.93.31 25.11 1.83 41.33 16.24 15 13.31 18.45 30.39 21.31 44.46 2.31 11.39 6.88 32.41-4.13 52.8a66.77 66.77 0 0 1-50.17 34.74Z"/><path class="cls-3" d="M50.91 134Q41.28 76.71 31.66 19.39l61.86-9.72C96.23 9.41 126.6 7 146.43 31.2c2.43 3 18.8 23.6 12.38 50-5.16 21.2-22.92 37.69-45.36 42.38Z"/><path class="cls-2" d="M55.16 34.09q6.71 38.64 13.4 77.28c3.43-.29 8.3-.81 14.09-1.8 23.76-4.09 36.46-6.26 44.55-16.3 13.11-16.29 4.52-40.74 4.45-40.93-.23-.57-.47-1.13-.47-1.13l-.18-.31c-1.77-4-6.55-13-16.75-18.18a40.89 40.89 0 0 0-11-3.59c-5.81-1.13-11.13-1.13-21.12.1a253 253 0 0 0-26.97 4.86Z"/><path class="cls-3" d="M64.57 64.65q3.9 21.38 7.81 42.73c7-.8 12.79-1.69 17.19-2.43 16.92-2.84 23.31-5.23 28.71-8.55a27.6 27.6 0 0 0 7-6c1.83-2.22 5.4-6.54 5-12.22a14.26 14.26 0 0 0-2.28-6.3c-3.34-5.73-9-8.28-11.63-9.38-5.53-2.27-10.35-2.48-15-2.69-7.53-.33-16 .78-21 1.43-2.73.45-5.57 1-8.5 1.64q-3.75.84-7.3 1.77Z"/></g></g></svg>